<?xml version="1.0" encoding="UTF-8"?> <svg xmlns="http://www.w3.org/2000/svg" width="35.983" height="44.904" viewBox="0 0 35.983 44.904"><g id="noun_expert_1324084" transform="translate(-6.461 3.678)"><g id="Gruppe_16" data-name="Gruppe 16" transform="translate(6.461 -3.678)"><path id="Pfad_22" data-name="Pfad 22" d="M20.18,26.191l-1.4-4.3-1.4,4.3H12.86l3.661,2.659-1.4,4.3,3.659-2.656,3.659,2.656-1.4-4.3L24.7,26.191Z" transform="translate(-0.791 11.67)" fill="#00427a"></path><path id="Pfad_23" data-name="Pfad 23" d="M13.781,26.236l-1.4-4.3-1.4,4.3H6.461L10.12,28.9l-1.4,4.3,3.659-2.656,3.659,2.652-1.4-4.295L18.3,26.236Z" transform="translate(-6.461 11.71)" fill="#00427a"></path><path id="Pfad_24" data-name="Pfad 24" d="M31.1,26.191H26.578l-1.4-4.3-1.4,4.3H19.26l3.659,2.659-1.4,4.3,3.659-2.656,3.659,2.652-1.4-4.295Z" transform="translate(4.88 11.67)" fill="#00427a"></path><path id="Pfad_25" data-name="Pfad 25" d="M19.987,21.071A8.487,8.487,0,1,0,11.5,12.583,8.5,8.5,0,0,0,19.987,21.071Zm0-15.089a6.6,6.6,0,1,1-6.6,6.6A6.609,6.609,0,0,1,19.987,5.982Z" transform="translate(-1.996 -4.096)" fill="#00427a"></path><path id="Pfad_26" data-name="Pfad 26" d="M34.019,23.583c0-3.916-3.21-8.487-12.26-8.487S9.5,19.668,9.5,23.583v.943H34.019ZM11.465,22.64c.594-3.467,4.5-5.658,10.294-5.658s9.7,2.192,10.294,5.658Z" transform="translate(-3.768 5.651)" fill="#00427a"></path></g></g></svg> 