<?xml version="1.0" encoding="UTF-8"?> <!-- Generator: Adobe Illustrator 15.0.2, SVG Export Plug-In . SVG Version: 6.00 Build 0) --> <svg xmlns="http://www.w3.org/2000/svg" xmlns:xlink="http://www.w3.org/1999/xlink" version="1.1" id="Ebene_1" x="0px" y="0px" width="1000px" height="1000px" viewBox="0 0 1000 1000" xml:space="preserve"> <g> <g> <g> <linearGradient id="SVGID_1_" gradientUnits="userSpaceOnUse" x1="302.0317" y1="207.0386" x2="302.0316" y2="1020.2808" gradientTransform="matrix(0.9858 -0.1682 -0.1682 -0.9858 296.1566 1156.667)"> <stop offset="0" style="stop-color:#EAE9E8"></stop> <stop offset="0.0121" style="stop-color:#D2D2D2"></stop> <stop offset="0.0312" style="stop-color:#B3B2B1"></stop> <stop offset="0.0507" style="stop-color:#969594"></stop> <stop offset="0.0705" style="stop-color:#7D7D7E"></stop> <stop offset="0.0907" style="stop-color:#6C6C6B"></stop> <stop offset="0.1113" style="stop-color:#626161"></stop> <stop offset="0.1333" style="stop-color:#5E5E5D"></stop> <stop offset="0.2606" style="stop-color:#A2A1A1"></stop> <stop offset="0.3515" style="stop-color:#FFFFFF"></stop> <stop offset="0.4606" style="stop-color:#676666"></stop> <stop offset="0.5576" style="stop-color:#757577"></stop> <stop offset="0.64" style="stop-color:#B5BEC4"></stop> <stop offset="0.7515" style="stop-color:#434342"></stop> <stop offset="0.8788" style="stop-color:#C6C5C6"></stop> <stop offset="1" style="stop-color:#B2BDC4"></stop> </linearGradient> <path fill="url(#SVGID_1_)" d="M89.833,569.3C127.6,790.684,337.68,939.535,559.066,901.769 c221.379-37.767,370.229-247.851,332.464-469.233C853.763,211.154,643.68,62.305,422.3,100.071 C200.914,137.838,52.066,347.919,89.833,569.3z"></path> <g> <linearGradient id="SVGID_2_" gradientUnits="userSpaceOnUse" x1="302.9258" y1="215.2173" x2="302.9257" y2="1009.2905" gradientTransform="matrix(0.9858 -0.1682 -0.1682 -0.9858 296.1566 1156.667)"> <stop offset="0" style="stop-color:#CED3D6"></stop> <stop offset="0.0121" style="stop-color:#C4C8CB"></stop> <stop offset="0.0312" style="stop-color:#B5B9BB"></stop> <stop offset="0.0507" style="stop-color:#A7AAAC"></stop> <stop offset="0.0705" style="stop-color:#9B9D9F"></stop> <stop offset="0.0907" style="stop-color:#949494"></stop> <stop offset="0.1113" style="stop-color:#8F8F8E"></stop> <stop offset="0.1212" style="stop-color:#8F8E8D"></stop> <stop offset="0.1333" style="stop-color:#878686"></stop> <stop offset="0.2485" style="stop-color:#6C6A6A"></stop> <stop offset="0.2606" style="stop-color:#757473"></stop> <stop offset="0.3515" style="stop-color:#D4D7DA"></stop> <stop offset="0.36" style="stop-color:#D3D7DA"></stop> <stop offset="0.4424" style="stop-color:#797878"></stop> <stop offset="0.4606" style="stop-color:#6D6C6C"></stop> <stop offset="0.5394" style="stop-color:#6D6C6C"></stop> <stop offset="0.5576" style="stop-color:#797878"></stop> <stop offset="0.64" style="stop-color:#D3D7DA"></stop> <stop offset="0.6485" style="stop-color:#D4D7DA"></stop> <stop offset="0.7394" style="stop-color:#757473"></stop> <stop offset="0.7515" style="stop-color:#6C6A6A"></stop> <stop offset="0.8667" style="stop-color:#878686"></stop> <stop offset="0.8788" style="stop-color:#8F8E8D"></stop> <stop offset="0.8887" style="stop-color:#8F8F8E"></stop> <stop offset="0.9093" style="stop-color:#949494"></stop> <stop offset="0.9295" style="stop-color:#9B9D9F"></stop> <stop offset="0.9493" style="stop-color:#A7AAAC"></stop> <stop offset="0.9688" style="stop-color:#B5B9BB"></stop> <stop offset="0.9879" style="stop-color:#C4C8CB"></stop> <stop offset="1" style="stop-color:#CED3D6"></stop> </linearGradient> <path fill="url(#SVGID_2_)" d="M100.4,568.924c36.876,216.165,242.005,361.509,458.171,324.632 c216.162-36.876,361.505-242.009,324.628-458.174C846.322,219.219,641.191,73.879,425.03,110.755 C208.863,147.632,63.523,352.761,100.4,568.924z"></path> </g> <g> <linearGradient id="SVGID_3_" gradientUnits="userSpaceOnUse" x1="303.8198" y1="223.396" x2="303.8198" y2="998.2983" gradientTransform="matrix(0.9858 -0.1682 -0.1682 -0.9858 296.1566 1156.667)"> <stop offset="0" style="stop-color:#E0F2FD"></stop> <stop offset="0.1212" style="stop-color:#F2FAFE"></stop> <stop offset="0.2485" style="stop-color:#757577"></stop> <stop offset="0.36" style="stop-color:#E2F3FD"></stop> <stop offset="0.4424" style="stop-color:#B1B6BB"></stop> <stop offset="0.5394" style="stop-color:#A0A3A6"></stop> <stop offset="0.6485" style="stop-color:#FFFFFF"></stop> <stop offset="0.7394" style="stop-color:#D7DCE0"></stop> <stop offset="0.8667" style="stop-color:#96999B"></stop> <stop offset="0.8887" style="stop-color:#9B9D9F"></stop> <stop offset="0.9093" style="stop-color:#A7ABAD"></stop> <stop offset="0.9295" style="stop-color:#BBC0C5"></stop> <stop offset="0.9493" style="stop-color:#CFD4D7"></stop> <stop offset="0.9688" style="stop-color:#E3EBEE"></stop> <stop offset="0.9879" style="stop-color:#FDFEFF"></stop> <stop offset="1" style="stop-color:#FFFFFF"></stop> </linearGradient> <path fill="url(#SVGID_3_)" d="M110.967,568.547c35.986,210.947,236.163,352.783,447.11,316.796 c210.944-35.984,352.778-236.166,316.792-447.112C838.883,227.285,638.704,85.454,427.76,121.44 C216.813,157.426,74.981,357.602,110.967,568.547z"></path> </g> </g> <g> <g> <linearGradient id="SVGID_4_" gradientUnits="userSpaceOnUse" x1="301.5542" y1="295.6475" x2="301.5542" y2="924.5688" gradientTransform="matrix(0.9858 -0.1682 -0.1682 -0.9858 296.1566 1156.667)"> <stop offset="0" style="stop-color:#853F12"></stop> <stop offset="0.1791" style="stop-color:#B14806"></stop> <stop offset="0.6083" style="stop-color:#F75900"></stop> <stop offset="0.8382" style="stop-color:#FC6B10"></stop> </linearGradient> <circle fill="url(#SVGID_4_)" cx="490.809" cy="504.501" r="314.425"></circle> <circle fill="none" stroke="#FFFFFF" stroke-width="6" stroke-miterlimit="10" cx="490.809" cy="504.501" r="314.425"></circle> </g> </g> <g> <g> <linearGradient id="SVGID_5_" gradientUnits="userSpaceOnUse" x1="41.2036" y1="1200.0625" x2="268.7909" y2="688.8932" gradientTransform="matrix(-0.9858 0.1682 0.1682 0.9858 480.8747 -455.0771)"> <stop offset="0" style="stop-color:#AD4805"></stop> <stop offset="0.1791" style="stop-color:#B14806"></stop> <stop offset="0.6083" style="stop-color:#F75900"></stop> <stop offset="0.8382" style="stop-color:#F76200"></stop> <stop offset="1" style="stop-color:#FC6600"></stop> </linearGradient> <path fill="url(#SVGID_5_)" d="M762.673,455.024C736.693,302.739,592.182,200.351,439.896,226.33 c-152.279,25.978-254.667,170.487-228.688,322.771c25.978,152.281,170.486,254.672,322.766,228.692 C686.259,751.815,788.651,607.307,762.673,455.024z"></path> </g> </g> <g> <linearGradient id="SVGID_6_" gradientUnits="userSpaceOnUse" x1="696.2617" y1="404.5229" x2="696.2617" y2="580.1294" gradientTransform="matrix(-0.9872 0.1595 0.1595 0.9872 1107.8029 6.1001)"> <stop offset="0" style="stop-color:#B2BDC4"></stop> <stop offset="0.1212" style="stop-color:#C6C5C6"></stop> <stop offset="0.2485" style="stop-color:#434342"></stop> <stop offset="0.36" style="stop-color:#B5BEC4"></stop> <stop offset="0.4424" style="stop-color:#757577"></stop> <stop offset="0.5394" style="stop-color:#676666"></stop> <stop offset="0.6485" style="stop-color:#FFFFFF"></stop> <stop offset="0.7394" style="stop-color:#A2A1A1"></stop> <stop offset="0.8667" style="stop-color:#5E5E5D"></stop> <stop offset="0.8887" style="stop-color:#626161"></stop> <stop offset="0.9093" style="stop-color:#6C6C6B"></stop> <stop offset="0.9295" style="stop-color:#7D7D7E"></stop> <stop offset="0.9493" style="stop-color:#969594"></stop> <stop offset="0.9688" style="stop-color:#B3B2B1"></stop> <stop offset="0.9879" style="stop-color:#D2D2D2"></stop> <stop offset="1" style="stop-color:#EAE9E8"></stop> </linearGradient> <path fill="url(#SVGID_6_)" d="M124.146,574.797L848.467,458.89c24.208-3.873,70.743,17.797,79.75,74.754 c9.008,56.957-27.279,93.568-51.488,97.443l-724.32,115.906c-24.21,3.873-73.766-20.43-82.146-71.066 C61.883,625.291,99.935,578.67,124.146,574.797z"></path> <radialGradient id="SVGID_7_" cx="305.6416" cy="690.1211" r="318.3452" gradientTransform="matrix(0.9874 -0.158 -0.0864 -0.5263 256.975 1014.0071)" gradientUnits="userSpaceOnUse"> <stop offset="0.0364" style="stop-color:#FFFFFF"></stop> <stop offset="0.1989" style="stop-color:#F4F4F4;stop-opacity:0.9916"></stop> <stop offset="0.5121" style="stop-color:#D7D7D7;stop-opacity:0.9753"></stop> <stop offset="0.9411" style="stop-color:#A5A5A4;stop-opacity:0.9531"></stop> <stop offset="1" style="stop-color:#9D9D9C;stop-opacity:0.95"></stop> </radialGradient> <path fill="url(#SVGID_7_)" d="M871.891,625.559L158.346,739.74c-23.568,3.77-68.695-16.262-77.114-69.574 c-8.418-53.313,27.093-87.824,50.663-91.596l705.142-112.837c23.568-3.772,70.074,18.96,79.467,66.099 C925.659,577.779,895.461,621.785,871.891,625.559z"></path> </g> <g> <path stroke="#FFFFFF" stroke-width="3" stroke-miterlimit="10" d="M180.256,603.887l10.998,70.084 c1.646,10.493,2.545,17.266,2.697,20.315c0.151,3.053-0.88,5.991-3.091,8.815c-2.212,2.824-5.458,5.049-9.739,6.672 c-4.282,1.624-10.88,3.134-19.796,4.532l-20.159,3.164l-2.876-18.33c2.442-0.251,4.205-0.461,5.289-0.631 c2.868-0.45,5.055-1.28,6.564-2.491c1.507-1.209,2.281-2.524,2.319-3.947c0.037-1.421-0.255-4.118-0.878-8.092l-11.577-73.775 L180.256,603.887z"></path> <path stroke="#FFFFFF" stroke-width="3" stroke-miterlimit="10" d="M287.333,587.084l10.998,70.084 c1.247,7.946,1.74,13.587,1.48,16.923c-0.26,3.338-2.005,6.997-5.233,10.976c-3.229,3.98-7.781,7.326-13.657,10.042 c-5.877,2.713-12.989,4.726-21.338,6.036c-9.242,1.45-17.562,1.693-24.962,0.731s-13.115-2.831-17.141-5.606 c-4.028-2.774-6.65-5.958-7.866-9.551c-1.217-3.592-2.753-11.303-4.61-23.136l-9.737-62.052l40.249-6.316l12.339,78.634 c0.719,4.578,1.544,7.446,2.477,8.604c0.931,1.159,2.513,1.563,4.745,1.213c2.548-0.399,4.08-1.358,4.594-2.878 c0.512-1.517,0.359-4.89-0.461-10.115l-12.126-77.273L287.333,587.084z"></path> <path stroke="#FFFFFF" stroke-width="3" stroke-miterlimit="10" d="M302.916,584.639l40.154-6.302 c12.682-1.99,22.396-2.829,29.139-2.517c6.742,0.313,12.441,2.193,17.097,5.64c4.655,3.448,7.694,9.703,9.116,18.765 c0.961,6.129,0.212,10.623-2.244,13.486c-2.458,2.861-7.759,5.594-15.905,8.198c9.529-0.034,16.209,1.341,20.043,4.126 c3.832,2.785,6.285,7.592,7.356,14.419l1.525,9.721c1.112,7.086,0.741,12.522-1.113,16.312 c-1.854,3.788-5.298,6.718-10.327,8.792c-5.03,2.073-15.64,4.38-31.828,6.92l-46.559,7.307L302.916,584.639z M345.98,596.265 l3.659,23.317c1.714-0.313,3.049-0.545,4.005-0.694c3.951-0.62,6.365-1.674,7.242-3.161c0.876-1.487,0.828-5.339-0.147-11.558 c-0.515-3.281-1.323-5.511-2.421-6.688c-1.1-1.177-2.392-1.825-3.881-1.946C352.948,595.414,350.129,595.657,345.98,596.265z M352.201,635.905l4.604,29.342c5.651-1.021,9.173-2.192,10.566-3.517c1.392-1.325,1.757-4.102,1.093-8.334l-1.535-9.781 c-0.705-4.491-1.834-7.101-3.385-7.831C361.993,635.054,358.211,635.094,352.201,635.905z"></path> <path stroke="#FFFFFF" stroke-width="3" stroke-miterlimit="10" d="M451.292,561.354l16.456,104.867l-40.249,6.315 L411.043,567.67L451.292,561.354z"></path> <path stroke="#FFFFFF" stroke-width="3" stroke-miterlimit="10" d="M507.698,552.502l13.163,83.881l24.475-3.841l3.293,20.986 l-64.724,10.156l-16.456-104.866L507.698,552.502z"></path> <path stroke="#FFFFFF" stroke-width="3" stroke-miterlimit="10" d="M575.762,521.181l2.643,16.842l-24.952,3.916l-2.643-16.842 L575.762,521.181z M616.375,535.448l39.474,101.254l-41.134,6.455l-5.118-18.51l-14.396,2.26l0.537,19.229l-41.611,6.529 l4.075-108.088L616.375,535.448z M605.625,606.224c-3.901-11.559-8.249-25.919-13.042-43.083 c-0.949,20.725-1.222,35.811-0.813,45.257L605.625,606.224z M617.54,514.625l2.644,16.842l-24.953,3.915l-2.643-16.842 L617.54,514.625z"></path> <path stroke="#FFFFFF" stroke-width="3" stroke-miterlimit="10" d="M737.72,516.406l10.998,70.084 c1.247,7.946,1.741,13.587,1.48,16.923c-0.26,3.338-2.004,6.997-5.232,10.976c-3.229,3.98-7.781,7.326-13.657,10.042 c-5.877,2.713-12.988,4.726-21.338,6.036c-9.242,1.45-17.563,1.693-24.963,0.73c-7.399-0.962-13.114-2.83-17.141-5.605 c-4.027-2.774-6.649-5.958-7.865-9.551c-1.217-3.592-2.754-11.303-4.61-23.136l-9.737-62.052l40.249-6.316l12.34,78.634 c0.718,4.578,1.543,7.445,2.476,8.604s2.515,1.563,4.746,1.213c2.549-0.399,4.08-1.358,4.594-2.878 c0.511-1.518,0.358-4.89-0.461-10.115l-12.127-77.273L737.72,516.406z"></path> <path stroke="#FFFFFF" stroke-width="3" stroke-miterlimit="10" d="M877.492,494.472l16.457,104.866l-35.183,5.521l-11.157-70.79 l-2.896,72.995l-24.952,3.916l-25.627-66.859l10.809,69.185l-35.183,5.521l-16.456-104.865l52.079-8.173 c2.535,6.062,5.293,13.243,8.276,21.544l9.901,25.777l1.565-50.42L877.492,494.472z"></path> </g> <g> <polygon fill="#FFFFFF" stroke="#000000" stroke-miterlimit="10" points="432.091,344.068 430.874,315.968 407.036,301.039 433.385,291.198 440.217,263.914 457.72,285.935 485.779,283.998 470.247,307.446 480.757,333.536 453.656,326.008 "></polygon> <polygon fill="#FFFFFF" stroke="#000000" stroke-miterlimit="10" points="512.485,328.628 511.952,306.128 493.112,293.814 514.344,286.353 520.235,264.632 533.895,282.519 556.372,281.408 543.582,299.927 551.586,320.96 530.019,314.516 "></polygon> <polygon fill="#FFFFFF" stroke="#000000" stroke-miterlimit="10" points="361.401,356.348 360.361,333.864 341.249,321.979 362.309,314.04 367.707,292.192 381.762,309.768 404.212,308.152 391.842,326.952 400.316,347.801 378.609,341.845 "></polygon> <polygon fill="#FFFFFF" stroke="#000000" stroke-miterlimit="10" points="581.021,318.831 581.154,304.294 569.251,295.943 583.119,291.576 587.384,277.68 595.823,289.519 610.36,289.278 601.707,300.961 606.426,314.711 592.642,310.093 "></polygon> <polygon fill="#FFFFFF" stroke="#000000" stroke-miterlimit="10" points="305.467,367.035 305.601,352.495 293.7,344.148 307.568,339.777 311.832,325.882 320.269,337.721 334.808,337.481 326.158,349.163 330.874,362.916 317.092,358.297 "></polygon> </g> <linearGradient id="SVGID_8_" gradientUnits="userSpaceOnUse" x1="544.0322" y1="703.0068" x2="456.734" y2="1053.3337" gradientTransform="matrix(0.6575 -0.1101 -0.1293 -0.7716 254.091 1115.4747)"> <stop offset="0" style="stop-color:#FFFFFF;stop-opacity:0"></stop> <stop offset="1" style="stop-color:#FFFFFF;stop-opacity:0.7"></stop> </linearGradient> <path opacity="0.28" fill="url(#SVGID_8_)" d="M664.538,350.125 c-12.18-72.738-109.365-117.082-217.054-99.042c-107.692,18.033-185.118,91.627-172.932,164.368 c12.183,72.74,109.36,117.079,217.051,99.042C599.296,496.454,676.722,422.864,664.538,350.125z"></path> <linearGradient id="SVGID_9_" gradientUnits="userSpaceOnUse" x1="-112.6958" y1="508.9756" x2="714.79" y2="508.9756" gradientTransform="matrix(0.9872 -0.1595 -0.1595 -0.9872 279.139 1153.7876)"> <stop offset="0" style="stop-color:#FFFFFF;stop-opacity:0.7"></stop> <stop offset="1" style="stop-color:#FFFFFF;stop-opacity:0"></stop> </linearGradient> <path opacity="0.36" fill="url(#SVGID_9_)" d="M149.401,737.129 c-18.749-6.959-54.631-22.98-62.028-63.801c-9.475-52.277,27.447-86.563,51.101-90.348l700.638-112.117 c23.65-3.784,82.314,61.348,57.191,68.518c-16.309,4.65-206.339,17.287-384.667,63.127 C292.216,658.906,149.401,737.129,149.401,737.129z"></path> <g> <path fill="#FFFFFF" stroke="#000000" stroke-width="2" stroke-miterlimit="10" d="M259.719,419.603l17.746,107.321 l-30.526,5.048l-9.514-57.539c-1.374-8.308-2.426-13.264-3.157-14.868c-0.731-1.604-2.188-2.669-4.371-3.193 c-2.183-0.525-6.8-0.204-13.852,0.962l-3.022,0.5l-2.069-12.512c14.298-5.228,24.559-12.809,30.782-22.746L259.719,419.603z"></path> <path fill="#FFFFFF" stroke="#000000" stroke-width="2" stroke-miterlimit="10" d="M349.597,442.06l5.919,35.797 c1.345,8.132,1.82,14.136,1.427,18.016c-0.395,3.878-1.911,7.694-4.551,11.444c-2.64,3.751-6.085,6.705-10.334,8.859 c-4.25,2.156-9.145,3.691-14.686,4.607c-7.305,1.208-13.497,1.471-18.577,0.791c-5.081-0.681-9.316-2.353-12.706-5.017 c-3.39-2.662-5.976-5.628-7.759-8.897c-1.782-3.27-3.298-8.682-4.548-16.24l-6.193-37.454c-1.63-9.854-1.881-17.395-0.752-22.622 c1.127-5.225,4.331-9.795,9.609-13.71c5.278-3.914,12.023-6.551,20.233-7.908c6.699-1.108,12.864-1.072,18.493,0.108 c5.629,1.181,9.998,3.036,13.107,5.563c3.108,2.528,5.436,5.57,6.982,9.128C346.807,428.084,348.252,433.93,349.597,442.06z M317.58,438.093c-0.943-5.701-1.848-9.217-2.715-10.549c-0.868-1.332-2.46-1.807-4.776-1.424 c-2.267,0.375-3.64,1.385-4.118,3.03c-0.478,1.646-0.261,5.231,0.653,10.754l8.659,52.369c1.03,6.23,1.991,9.931,2.883,11.1 c0.892,1.17,2.472,1.566,4.738,1.191c2.267-0.375,3.628-1.371,4.085-2.99c0.457-1.62,0.25-5.059-0.619-10.317L317.58,438.093z"></path> <path fill="#FFFFFF" stroke="#000000" stroke-width="2" stroke-miterlimit="10" d="M421.644,392.828l11.86,71.724 c1.775,10.739,2.791,17.667,3.046,20.778c0.255,3.115-0.438,6.077-2.075,8.891c-1.639,2.813-4.129,4.984-7.471,6.512 c-3.342,1.53-8.536,2.876-15.582,4.04l-15.933,2.635l-3.102-18.76c1.936-0.184,3.332-0.347,4.189-0.489 c2.267-0.375,3.974-1.156,5.124-2.344c1.148-1.189,1.706-2.506,1.674-3.955c-0.033-1.447-0.384-4.204-1.057-8.27l-12.484-75.503 L421.644,392.828z"></path> <path fill="#FFFFFF" stroke="#000000" stroke-width="2" stroke-miterlimit="10" d="M488.948,381.699l35.937,104.313 l-32.509,5.375l-4.896-19.007l-11.38,1.881l1.277,19.605l-32.887,5.438l-1.52-110.004L488.948,381.699z M483.5,453.494 c-3.62-11.89-7.72-26.647-12.298-44.276c0.157,21.087,0.605,36.449,1.348,46.087L483.5,453.494z"></path> <path fill="#FFFFFF" stroke="#000000" stroke-width="2" stroke-miterlimit="10" d="M585.684,365.704l17.746,107.321l-31.811,5.26 l-7.453-45.076l-9.521,1.574l7.454,45.076l-31.811,5.26l-17.746-107.321l31.811-5.26l6.347,38.381l9.521-1.574l-6.347-38.381 L585.684,365.704z"></path> <path fill="#FFFFFF" stroke="#000000" stroke-width="2" stroke-miterlimit="10" d="M598.453,363.592l22.518-3.723 c15.01-2.482,25.257-3.655,30.74-3.518c5.481,0.139,10.242,2.019,14.283,5.64c4.04,3.623,6.817,10.008,8.33,19.156 c1.381,8.353,1.125,14.162-0.768,17.425c-1.893,3.265-6.267,5.759-13.124,7.481c6.523,0.33,11.058,1.465,13.604,3.404 c2.545,1.94,4.242,3.826,5.09,5.663c0.846,1.834,1.986,7.083,3.418,15.745l4.681,28.305l-29.545,4.885l-5.896-35.663 c-0.95-5.745-2.055-9.217-3.313-10.416c-1.26-1.199-4.08-1.437-8.463-0.712l8.002,48.391l-31.811,5.26L598.453,363.592z M633.3,376.694l3.946,23.864c3.576-0.591,6.011-1.438,7.304-2.536c1.294-1.099,1.549-4.012,0.768-8.741l-0.976-5.9 c-0.563-3.402-1.625-5.521-3.186-6.352S636.977,376.086,633.3,376.694z"></path> <path fill="#FFFFFF" stroke="#000000" stroke-width="2" stroke-miterlimit="10" d="M681.795,349.812l53.043-8.771l3.552,21.478 l-21.231,3.511l3.365,20.351l19.871-3.286l3.377,20.417l-19.873,3.286l3.902,23.599l23.348-3.861l3.552,21.478l-55.159,9.121 L681.795,349.812z"></path> </g> <g> <polygon fill="#FFFFFF" stroke="#000000" stroke-miterlimit="10" points="549.978,707.331 550.967,730.18 570.349,742.317 548.924,750.319 543.369,772.505 529.138,754.599 506.323,756.174 518.952,737.108 510.406,715.895 532.442,722.016 "></polygon> <polygon fill="#FFFFFF" stroke="#000000" stroke-miterlimit="10" points="484.608,719.886 485.042,738.18 500.361,748.192 483.097,754.259 478.307,771.921 467.201,757.376 448.924,758.279 459.324,743.223 452.816,726.119 470.352,731.36 "></polygon> <polygon fill="#FFFFFF" stroke="#000000" stroke-miterlimit="10" points="607.455,697.348 608.3,715.628 623.841,725.292 606.716,731.747 602.327,749.512 590.898,735.221 572.645,736.534 582.703,721.248 575.813,704.296 593.463,709.138 "></polygon> <polygon fill="#FFFFFF" stroke="#000000" stroke-miterlimit="10" points="428.882,727.852 428.774,739.671 438.452,746.461 427.176,750.012 423.708,761.312 416.847,751.686 405.026,751.881 412.063,742.382 408.226,731.201 419.434,734.955 "></polygon> <polygon fill="#FFFFFF" stroke="#000000" stroke-miterlimit="10" points="652.935,688.657 652.826,700.479 662.502,707.266 651.227,710.819 647.76,722.117 640.899,712.492 629.078,712.687 636.11,703.188 632.276,692.007 643.481,695.763 "></polygon> </g> </g> <g> <circle fill="none" cx="489.899" cy="517.389" r="329.568"></circle> <g> <path fill="#4F4F4D" stroke="#FFFFFF" stroke-miterlimit="10" d="M199.671,265.463l39.202,34.957l-9.746,13.855 c-7.449-3.343-15.696-7.47-24.741-12.381c3.274,2.964,10.007,9.243,20.202,18.835l-9.689,13.776l-46.17-25.048l7.583-10.781 l15.715,9.3l15.192,8.991c-7.162-5.649-16.204-13.538-27.127-23.666l8.104-11.524c1.356,0.725,6.331,3.622,14.929,8.69 l17.099,10.195c-9.887-7.897-19.265-16.036-28.135-24.418L199.671,265.463z"></path> <path fill="#4F4F4D" stroke="#FFFFFF" stroke-miterlimit="10" d="M213.876,250.382l39.175,34.461l-8.961,10.187l-39.175-34.461 L213.876,250.382z"></path> <path fill="#4F4F4D" stroke="#FFFFFF" stroke-miterlimit="10" d="M219.674,243.821l6.906-6.673 c4.604-4.449,7.895-7.283,9.866-8.502c1.975-1.22,4.18-1.596,6.617-1.129c2.44,0.468,5.204,2.3,8.294,5.499 c2.821,2.92,4.354,5.233,4.599,6.939c0.244,1.707-0.603,3.69-2.54,5.951c2.394-1.387,4.311-2,5.752-1.838 c1.439,0.162,2.566,0.5,3.377,1.015c0.813,0.515,2.682,2.287,5.607,5.315l9.562,9.896l-9.062,8.755l-12.047-12.468 c-1.941-2.008-3.302-3.099-4.08-3.272c-0.78-0.173-1.843,0.39-3.186,1.688l16.346,16.918l-9.757,9.428L219.674,243.821z M235.634,240.813l8.062,8.343c1.098-1.06,1.721-1.953,1.87-2.68s-0.574-1.917-2.173-3.57l-1.992-2.063 c-1.15-1.189-2.116-1.765-2.899-1.725S236.762,239.724,235.634,240.813z"></path> <path fill="#4F4F4D" stroke="#FFFFFF" stroke-miterlimit="10" d="M258.399,208.75l18.399-13.764l6.255,8.361l-7.535,5.636 l5.926,7.923l6.71-5.019l5.945,7.948l-6.71,5.019l13.127,17.548l-10.865,8.126L258.399,208.75z"></path> <path fill="#4F4F4D" stroke="#FFFFFF" stroke-miterlimit="10" d="M282.193,191.351l19.133-12.07l5.571,8.831l-7.658,4.832 l5.278,8.367l7.168-4.521l5.296,8.395l-7.169,4.522l6.121,9.703l8.422-5.313l5.571,8.831l-19.897,12.551L282.193,191.351z"></path> <path fill="#4F4F4D" stroke="#FFFFFF" stroke-miterlimit="10" d="M319.905,169.17l24.735,45.938l-11.945,6.432l-24.736-45.938 L319.905,169.17z"></path> <path fill="#4F4F4D" stroke="#FFFFFF" stroke-miterlimit="10" d="M327.23,165.381l20.611-9.327l4.304,9.513l-8.25,3.733 l4.079,9.014l7.722-3.494l4.092,9.043l-7.722,3.494l4.729,10.453l9.072-4.105l4.306,9.513l-21.435,9.698L327.23,165.381z"></path> <path fill="#4F4F4D" stroke="#FFFFFF" stroke-miterlimit="10" d="M355.781,152.728l9.083-3.122 c6.054-2.081,10.232-3.256,12.537-3.526c2.304-0.269,4.461,0.324,6.473,1.779s3.74,4.286,5.187,8.492 c1.319,3.84,1.728,6.584,1.227,8.233c-0.5,1.649-2.106,3.087-4.819,4.315c2.756-0.243,4.752,0.013,5.989,0.769 c1.236,0.756,2.113,1.54,2.631,2.35c0.517,0.811,1.46,3.207,2.829,7.189l4.474,13.014l-11.917,4.096l-5.635-16.396 c-0.908-2.641-1.68-4.205-2.313-4.692c-0.633-0.486-1.832-0.426-3.6,0.182l7.647,22.248l-12.831,4.411L355.781,152.728z M371.513,156.759l3.771,10.972c1.442-0.496,2.386-1.042,2.828-1.637c0.443-0.595,0.291-1.979-0.456-4.154l-0.934-2.712 c-0.536-1.564-1.169-2.494-1.896-2.79C374.101,156.143,372.997,156.25,371.513,156.759z"></path> <path fill="#4F4F4D" stroke="#FFFFFF" stroke-miterlimit="10" d="M423.184,133.512l11.61,50.867l-11.593,2.646l-12.159-21.554 l5.278,23.125l-11.06,2.524l-11.61-50.866l11.061-2.524l12.643,21.211l-5.229-22.904L423.184,133.512z"></path> <path fill="#4F4F4D" stroke="#FFFFFF" stroke-miterlimit="10" d="M461.444,128.633l3.591,34.684 c0.537,5.193,0.829,8.538,0.876,10.034c0.047,1.497-0.303,2.888-1.047,4.175c-0.746,1.287-1.836,2.236-3.274,2.85 c-1.436,0.613-3.649,1.074-6.639,1.384l-6.759,0.699l-0.938-9.071c0.818-0.02,1.409-0.049,1.772-0.086 c0.962-0.1,1.695-0.413,2.203-0.941c0.507-0.527,0.768-1.138,0.782-1.831c0.015-0.692-0.079-2.022-0.282-3.988l-3.781-36.511 L461.444,128.633z"></path> <path fill="#4F4F4D" stroke="#FFFFFF" stroke-miterlimit="10" d="M501.041,127.303l0.568,34.865 c0.064,3.953-0.018,6.731-0.25,8.336c-0.23,1.604-0.968,3.26-2.208,4.967c-1.239,1.708-2.889,3.013-4.947,3.917 s-4.495,1.378-7.309,1.425c-3.115,0.051-5.873-0.42-8.274-1.412c-2.401-0.992-4.207-2.305-5.414-3.94 c-1.209-1.635-1.937-3.369-2.181-5.202c-0.244-1.833-0.415-5.692-0.512-11.579l-0.504-30.869l13.565-0.221l0.64,39.118 c0.037,2.277,0.184,3.73,0.44,4.36c0.258,0.63,0.763,0.938,1.515,0.926c0.858-0.014,1.407-0.372,1.643-1.074 s0.333-2.353,0.29-4.953l-0.628-38.441L501.041,127.303z"></path> <path fill="#4F4F4D" stroke="#FFFFFF" stroke-miterlimit="10" d="M510.648,127.667l13.477,1.235 c4.258,0.39,7.453,1.017,9.586,1.881c2.131,0.863,3.779,2.367,4.943,4.511c1.162,2.145,1.537,5.461,1.125,9.951 c-0.277,3.036-0.947,5.109-2.008,6.219c-1.063,1.11-3.025,1.857-5.887,2.242c3.059,0.993,5.07,2.359,6.033,4.099 c0.961,1.739,1.287,4.3,0.977,7.683l-0.439,4.816c-0.322,3.511-0.961,6.075-1.918,7.692c-0.957,1.618-2.344,2.657-4.152,3.117 c-1.813,0.46-5.436,0.441-10.869-0.057l-15.629-1.432L510.648,127.667z M521.543,157.435l-1.332,14.538 c1.91,0.11,3.152-0.078,3.725-0.565c0.574-0.486,0.957-1.778,1.148-3.875l0.443-4.846c0.205-2.225,0.094-3.594-0.336-4.108 C524.766,158.065,523.549,157.683,521.543,157.435z M523.344,137.794l-1.059,11.553c0.58,0.032,1.029,0.062,1.352,0.091 c1.326,0.122,2.199-0.127,2.623-0.747c0.424-0.619,0.777-2.469,1.059-5.55c0.148-1.625,0.104-2.778-0.137-3.458 c-0.238-0.68-0.592-1.127-1.057-1.343S524.732,137.943,523.344,137.794z"></path> <path fill="#4F4F4D" stroke="#FFFFFF" stroke-miterlimit="10" d="M563.475,134.324l-8.959,51.399l-13.367-2.33l8.961-51.399 L563.475,134.324z"></path> <path fill="#4F4F4D" stroke="#FFFFFF" stroke-miterlimit="10" d="M584.598,139.065l-9.822,40.561l8.018,1.942l-2.457,10.148 l-21.203-5.136l12.279-50.708L584.598,139.065z"></path> <path fill="#4F4F4D" stroke="#FFFFFF" stroke-miterlimit="10" d="M623.172,150.94l-9.559,51.876l-13.117-4.491l2.35-9.108 l-4.592-1.572l-3.811,8.608l-13.27-4.543l23.445-47.121L623.172,150.94z M605.504,180.352c1.264-5.813,2.979-12.948,5.143-21.402 c-4.543,9.004-7.73,15.635-9.561,19.89L605.504,180.352z M614.475,137.37l-2.713,7.927l-7.959-2.724l2.715-7.927L614.475,137.37z M627.799,141.931l-2.713,7.927l-7.959-2.724l2.713-7.927L627.799,141.931z"></path> <path fill="#4F4F4D" stroke="#FFFFFF" stroke-miterlimit="10" d="M664.529,168.952l-14.668,31.635 c-1.662,3.586-2.947,6.051-3.854,7.395c-0.908,1.344-2.293,2.514-4.15,3.511c-1.859,0.997-3.914,1.454-6.16,1.371 c-2.248-0.083-4.646-0.716-7.199-1.899c-2.826-1.311-5.105-2.935-6.834-4.874c-1.73-1.939-2.783-3.907-3.16-5.905 c-0.375-1.998-0.275-3.875,0.303-5.632c0.578-1.757,2.105-5.305,4.58-10.646l12.986-28.009l12.309,5.707l-16.457,35.494 c-0.957,2.066-1.457,3.438-1.498,4.118c-0.043,0.679,0.275,1.176,0.959,1.493c0.777,0.361,1.428,0.277,1.945-0.252 s1.324-1.974,2.418-4.332l16.17-34.88L664.529,168.952z"></path> <path fill="#4F4F4D" stroke="#FFFFFF" stroke-miterlimit="10" d="M709.264,195.785l-27.68,44.229l-10.053-6.292l18.672-29.867 l-22.688,27.354l-7.131-4.462l14.039-31.817l-18.273,29.167l-10.053-6.291l27.678-44.228l14.883,9.313 c-1.225,2.936-2.729,6.354-4.52,10.257l-5.408,12.272l15.568-18.999L709.264,195.785z"></path> <path fill="#4F4F4D" stroke="#FFFFFF" stroke-miterlimit="10" d="M701.287,242.654l-6.375,8.27l-9.648-7.436l6.373-8.271 L701.287,242.654z M727.604,210.247l-25.664,29.818l-7.965-6.137l22.295-32.415L727.604,210.247z"></path> <path fill="#4F4F4D" stroke="#FFFFFF" stroke-miterlimit="10" d="M672.248,834.04l-17.389-30.222 c-2.605-4.525-4.232-7.462-4.885-8.81c-0.65-1.349-0.898-2.762-0.74-4.239c0.156-1.479,0.766-2.791,1.83-3.936 c1.063-1.145,2.896-2.466,5.5-3.965l5.891-3.39l4.549,7.905c-0.74,0.352-1.268,0.618-1.584,0.8 c-0.84,0.482-1.381,1.067-1.631,1.756c-0.248,0.688-0.238,1.352,0.031,1.99c0.268,0.639,0.895,1.814,1.881,3.528l18.307,31.814 L672.248,834.04z"></path> <path fill="#4F4F4D" stroke="#FFFFFF" stroke-miterlimit="10" d="M636.664,851.37l-14.729-31.605 c-1.67-3.584-2.727-6.155-3.17-7.715c-0.441-1.56-0.445-3.372-0.008-5.436c0.436-2.064,1.41-3.929,2.922-5.593 c1.512-1.665,3.543-3.092,6.094-4.28c2.824-1.315,5.533-2.01,8.131-2.083c2.598-0.072,4.781,0.391,6.551,1.392 c1.771,1.001,3.141,2.288,4.111,3.862s2.699,5.029,5.186,10.365l13.041,27.982l-12.297,5.731l-16.527-35.461 c-0.961-2.064-1.688-3.332-2.18-3.802c-0.49-0.47-1.076-0.546-1.76-0.229c-0.779,0.363-1.133,0.913-1.063,1.65 c0.072,0.737,0.656,2.284,1.754,4.641l16.24,34.848L636.664,851.37z"></path> <path fill="#4F4F4D" stroke="#FFFFFF" stroke-miterlimit="10" d="M627.729,854.963l-12.813,4.361 c-4.047,1.377-7.221,2.105-9.52,2.186c-2.301,0.079-4.416-0.623-6.352-2.107c-1.936-1.485-3.629-4.361-5.082-8.63 c-0.982-2.886-1.215-5.052-0.697-6.498c0.518-1.447,2.006-2.928,4.463-4.444c-3.199,0.339-5.592-0.09-7.18-1.287 c-1.586-1.196-2.928-3.402-4.021-6.618l-1.559-4.579c-1.135-3.337-1.598-5.939-1.381-7.807s1.057-3.38,2.523-4.537 c1.467-1.158,4.783-2.616,9.949-4.374l14.857-5.058L627.729,854.963z M605.654,832.213l-4.705-13.82 c-1.789,0.678-2.846,1.354-3.17,2.033c-0.326,0.678-0.15,2.014,0.529,4.007l1.568,4.606c0.719,2.115,1.379,3.32,1.979,3.615 C602.457,832.949,603.721,832.803,605.654,832.213z M612.01,850.884l-3.738-10.982c-0.543,0.207-0.967,0.362-1.271,0.466 c-1.262,0.43-1.959,1.013-2.094,1.751s0.297,2.571,1.293,5.501c0.525,1.545,1.039,2.58,1.533,3.104 c0.498,0.522,1,0.788,1.514,0.795S610.68,851.313,612.01,850.884z"></path> <path fill="#4F4F4D" stroke="#FFFFFF" stroke-miterlimit="10" d="M576.684,870.386l-12.662-50.615l13.16-3.293l12.662,50.615 L576.684,870.386z"></path> <path fill="#4F4F4D" stroke="#FFFFFF" stroke-miterlimit="10" d="M555.412,874.609l-7.43-41.066l-8.117,1.469l-1.857-10.275 l21.467-3.883l9.287,51.341L555.412,874.609z"></path> <path fill="#4F4F4D" stroke="#FFFFFF" stroke-miterlimit="10" d="M515.324,879.339l-12.219-51.313l13.814-1.193l1.531,9.281 l4.836-0.418l0.006-9.413l13.975-1.206l-2.408,52.577L515.324,879.339z M514.732,889.45l-0.721-8.349l8.381-0.723l0.719,8.348 L514.732,889.45z M519.602,845.297c1.193,5.829,2.508,13.047,3.943,21.656c0.518-10.073,0.754-17.426,0.709-22.058 L519.602,845.297z M528.762,888.239l-0.719-8.348l8.379-0.724l0.721,8.348L528.762,888.239z"></path> <path fill="#4F4F4D" stroke="#FFFFFF" stroke-miterlimit="10" d="M470.215,879.577l0.628-34.863 c0.071-3.952,0.251-6.727,0.537-8.322c0.287-1.596,1.078-3.226,2.375-4.889c1.299-1.664,2.992-2.911,5.08-3.744 c2.089-0.833,4.541-1.224,7.354-1.173c3.115,0.056,5.855,0.621,8.222,1.694c2.365,1.074,4.125,2.448,5.275,4.124 c1.152,1.676,1.82,3.434,2,5.273c0.184,1.841,0.221,5.704,0.115,11.59l-0.555,30.868l-13.566-0.244l0.703-39.117 c0.042-2.276-0.056-3.734-0.291-4.372c-0.236-0.639-0.73-0.964-1.481-0.978c-0.859-0.016-1.419,0.323-1.678,1.017 c-0.261,0.693-0.413,2.341-0.46,4.939l-0.692,38.44L470.215,879.577z"></path> <path fill="#4F4F4D" stroke="#FFFFFF" stroke-miterlimit="10" d="M418.846,873.388l6.992-51.704l11.752,1.589l-4.704,34.908 l9.399-34.273l8.336,1.127l0.321,34.774l4.628-34.104l11.751,1.589l-6.99,51.704l-17.397-2.353 c-0.095-3.179-0.132-6.914-0.109-11.208l-0.131-13.409l-6.355,23.726L418.846,873.388z"></path> </g> </g> </g> </svg> 